<?xml version="1.0" encoding="UTF-8" standalone="no"?>
  <svg width="640px" height="480px" viewBox="0 0 640 480" version="1.1" xmlns="http://www.w3.org/2000/svg" xmlns:xlink="http://www.w3.org/1999/xlink" xmlns:sketch="http://www.bohemiancoding.com/sketch/ns">

    <!-- remove -->
    <path d="M16.2307692,19 L11.3846154,14.1538462 L10,12.7692308 L12.7692308,10 L14.1538462,11.3846154 L19,16.2307692 L23.8461538,11.3846154 L25.2307692,10 L28,12.7692308 L26.6153846,14.1538462 L21.7692308,19 L26.6153846,23.8461538 L28,25.2307692 L25.2307692,28 L23.8461538,26.6153846 L19,21.7692308 L14.1538462,26.6153846 L12.7692308,28 L10,25.2307692 L11.3846154,23.8461538 L16.2307692,19 L16.2307692,19 Z" fill="#000000"></path>

    <!-- drag -->
    <path d="M38.25,13 L40.75,13 L41,13 L41,10 L40.75,10 L38.25,10 L38,10 L38,13 L38.25,13 Z M38.25,18.8 L40.75,18.8 L41,18.8 L41,15.8 L40.75,15.8 L38.25,15.8 L38,15.8 L38,18.8 L38.25,18.8 Z M38.25,24.6 L40.75,24.6 L41,24.6 L41,21.6 L40.75,21.6 L38.25,21.6 L38,21.6 L38,24.6 L38.25,24.6 Z" fill="#A3A9B2" transform="translate(39.500000, 17.300000) scale(-1, 1) translate(-39.500000, -17.300000) "></path>

    <!-- tree -->
    <path d="M71,11.992174 L51,11.992174 L51,8 L70.999703,8 L71,11.992174 Z M61,28 L51,28 L51,24.007826 L61,24.007826 L61,28 Z M71,19.9954941 L51,19.9954941 L51,16.003913 L70.999703,16.003913 L71,19.9954941 Z" fill="#A2A9B1"></path>

    <!-- media -->
    <g transform="translate(81.000000, 9.000000)" fill="#A2A9B1">
      <path d="M1,1.99079514 L1,1.99079514 L1,18.0092049 C1,18.5524218 1.44650875,19 1.99079514,19 L18.0092049,19 C18.5524218,19 19,18.5534913 19,18.0092049 L19,1.99079514 C19,1.4475782 18.5534913,1 18.0092049,1 L1.99079514,1 C1.4475782,1 1,1.44650875 1,1.99079514 L1,1.99079514 Z M0,1.99079514 C0,0.891309342 0.898212381,0 1.99079514,0 L18.0092049,0 C19.1086907,0 20,0.898212381 20,1.99079514 L20,18.0092049 C20,19.1086907 19.1017876,20 18.0092049,20 L1.99079514,20 C0.891309342,20 0,19.1017876 0,18.0092049 L0,1.99079514 L0,1.99079514 Z"></path>
      <path d="M12.4622223,13.7201139 L16.1553396,18.833661 C16.3170184,19.0575239 16.2666082,19.3700671 16.0427453,19.5317459 C15.8188824,19.6934246 15.5063391,19.6430144 15.3446604,19.4191515 L6.81341039,7.60665153 L7.53109752,7.70434065 L0.968597524,12.9543407 C0.752966556,13.1268454 0.438320369,13.0918847 0.265815595,12.8762538 C0.0933108212,12.6606228 0.128271509,12.3459766 0.343902476,12.1734718 L6.90640248,6.92347185 C7.12958258,6.74492776 7.45675057,6.78946075 7.62408961,7.02116097 L11.9920177,13.0690613 C12.0154216,12.9950035 12.0564812,12.9253182 12.1151966,12.8666029 L14.7401966,10.2416029 C14.9260701,10.0557294 15.2241289,10.0455207 15.4222844,10.218241 L19.3285344,13.6230848 C19.536699,13.8045293 19.5583598,14.1203699 19.3769153,14.3285345 C19.1954707,14.5366991 18.8796301,14.5583599 18.6714656,14.3769153 L14.7652156,10.9720715 L15.4473034,10.9487096 L12.8223034,13.5737096 C12.7230121,13.6730009 12.5923505,13.7218023 12.4622223,13.7201139 L12.4622223,13.7201139 Z M13.4525,7.77999997 C14.6343893,7.77999997 15.5925,6.82188934 15.5925,5.63999999 C15.5925,4.45811063 14.6343893,3.5 13.4525,3.5 C12.2706106,3.5 11.3125,4.45811063 11.3125,5.63999999 C11.3125,6.82188934 12.2706106,7.77999997 13.4525,7.77999997 Z M13.4525,6.77999997 C12.8228954,6.77999997 12.3125,6.26960459 12.3125,5.63999999 C12.3125,5.01039538 12.8228954,4.5 13.4525,4.5 C14.0821046,4.5 14.5925,5.01039538 14.5925,5.63999999 C14.5925,6.26960459 14.0821046,6.77999997 13.4525,6.77999997 L13.4525,6.77999997 Z"></path>
    </g>

    <!-- back -->
    <path fill="#A2A9B1" d="M120.547578,28.7666667 C120.862457,29.0777778 121.379758,29.0777778 121.694637,28.7666667 L123.763841,26.7 C124.07872,26.3888889 124.07872,25.9 123.763841,25.5888889 L117.106401,19.0111111 L123.763841,12.4333333 C124.07872,12.1222222 124.07872,11.6333333 123.763841,11.3222222 L121.694637,9.23333333 C121.379758,8.92222222 120.862457,8.92222222 120.547578,9.23333333 L111.236159,18.4555556 C110.92128,18.7666667 110.92128,19.2555556 111.236159,19.5666667 L120.547578,28.7666667 L120.547578,28.7666667 Z"></path>

    <!-- entry-color -->
    <g transform="translate(133.750000, 8.250000)">
      <rect fill="#F1EECE" sketch:type="MSShapeGroup" x="0" y="1" width="13.5" height="18.5" rx="1"></rect>
      <path d="M1,2.00119981 L1,2.00119981 L1,18.4988002 C1,18.4989681 1.00103452,18.5 1.00366497,18.5 L12.496335,18.5 C12.4990026,18.5 12.5,18.4990049 12.5,18.4988002 L12.5,2.00119981 C12.5,2.0010319 12.4989655,2 12.496335,2 L1.00366497,2 C1.00099745,2 1,2.00099513 1,2.00119981 L1,2.00119981 Z M0,2.00119981 C0,1.44825242 0.449169159,1 1.00366497,1 L12.496335,1 C13.0506439,1 13.5,1.44813931 13.5,2.00119981 L13.5,18.4988002 C13.5,19.0517476 13.0508308,19.5 12.496335,19.5 L1.00366497,19.5 C0.449356113,19.5 0,19.0518607 0,18.4988002 L0,2.00119981 L0,2.00119981 Z" id="Shape" fill="#21304A" sketch:type="MSShapeGroup"></path>
      <g transform="translate(13.280330, 10.261617) rotate(-315.000000) translate(-13.280330, -10.261617) translate(8.530330, 1.011617)" sketch:type="MSShapeGroup">
        <polygon fill="#FFFFFF" transform="translate(5.000000, 13.298750) rotate(-180.000000) translate(-5.000000, -13.298750) " points="5.00000009 9 8.80422607 15.1253636 7.35114101 17.5974996 2.64885899 17.5974996 1.19577393 15.1253636 "></polygon>
        <path d="M5.42474925,17.3337042 L1.62052328,11.2083406 L1.6268258,11.7255019 L3.07991085,9.25336593 L2.64885899,9.5 L7.35114101,9.5 L6.92008915,9.25336593 L8.3731742,11.7255019 L8.37947672,11.2083406 L4.57525056,17.3337042 L5.42474925,17.3337042 L5.42474925,17.3337042 Z M4.57525056,17.8612949 C4.77084729,18.1762345 5.22915251,18.1762345 5.42474925,17.8612949 L9.22897541,11.7359313 C9.32699612,11.5781036 9.32942328,11.3789397 9.23527793,11.21877 L7.78219287,8.74663407 C7.6923788,8.59383325 7.52838282,8.5 7.35114101,8.5 L2.64885899,8.5 C2.47161718,8.5 2.3076212,8.59383325 2.21780713,8.74663407 L0.764722074,11.21877 C0.670576723,11.3789397 0.673003883,11.5781036 0.771024587,11.7359313 L4.57525056,17.8612949 L4.57525056,17.8612949 Z" id="Shape" fill="#21304A"></path>
        <path d="M8.1577394,6.29478249 C8.1577394,6.29478249 8.56030154,2.34528269 4.06030178,1.84528269 C2.56030178,3.8452827 1.6577394,4.77539211 1.6577394,4.77539211 L5.1577394,8.29478269 L8.1577394,6.29478249 Z" id="Path-127-Copy" fill="#16C98D" transform="translate(4.912375, 5.070033) rotate(-45.000000) translate(-4.912375, -5.070033) "></path>
        <rect id="Rectangle-31" fill="#16C98D" x="1.5" y="7" width="7" height="2.5" rx="1"></rect>
        <path d="M2.5,8.00244075 L2.5,8.00244075 L2.5,8.49755925 C2.5,8.49972734 2.50027314,8.5 2.50292933,8.5 L7.49707067,8.5 C7.49904613,8.5 7.5,8.49904627 7.5,8.49755925 L7.5,8.00244075 C7.5,8.00027266 7.49972686,8 7.49707067,8 L2.50292933,8 C2.50095387,8 2.5,8.00095373 2.5,8.00244075 L2.5,8.00244075 Z M1.5,8.00244075 C1.5,7.44880801 1.94853006,7 2.50292933,7 L7.49707067,7 C8.05097324,7 8.5,7.4469499 8.5,8.00244075 L8.5,8.49755925 C8.5,9.05119199 8.05146994,9.5 7.49707067,9.5 L2.50292933,9.5 C1.94902676,9.5 1.5,9.0530501 1.5,8.49755925 L1.5,8.00244075 L1.5,8.00244075 Z" id="Shape" fill="#21304A"></path>
        <path d="M2.99418585,7.17397141 L2.49418585,3.92397141 C2.45219642,3.6510401 2.19690272,3.46382472 1.92397141,3.50581415 C1.6510401,3.54780358 1.46382472,3.80309728 1.50581415,4.07602859 L2.00581415,7.32602859 C2.04780358,7.5989599 2.30309728,7.78617528 2.57602859,7.74418585 C2.8489599,7.70219642 3.03617528,7.44690272 2.99418585,7.17397141 L2.99418585,7.17397141 Z" id="Shape" fill="#21304A"></path>
        <path d="M7.99418585,7.32602859 L8.49418585,4.07602859 C8.53617528,3.80309728 8.3489599,3.54780358 8.07602859,3.50581415 C7.80309728,3.46382472 7.54780358,3.6510401 7.50581415,3.92397141 L7.00581415,7.17397141 C6.96382472,7.44690272 7.1510401,7.70219642 7.42397141,7.74418585 C7.69690272,7.78617528 7.95219642,7.5989599 7.99418585,7.32602859 L7.99418585,7.32602859 Z" id="Shape" fill="#21304A"></path>
        <path d="M5.25,17.2439461 L5.25,13.7075713 L5.25,13.4575713 L4.75,13.4575713 L4.75,13.7075713 L4.75,17.2439461 L4.75,17.4939461 L5.25,17.4939461 L5.25,17.2439461 L5.25,17.2439461 Z" id="Shape" fill="#21304A"></path>
        <circle id="Oval-9" fill="#F1EECE" cx="5" cy="12.4571068" r="0.75"></circle>
        <path d="M5,13.4571068 C5.55228475,13.4571068 6,13.0093915 6,12.4571068 C6,11.904822 5.55228475,11.4571068 5,11.4571068 C4.44771525,11.4571068 4,11.904822 4,12.4571068 C4,13.0093915 4.44771525,13.4571068 5,13.4571068 L5,13.4571068 Z M5,12.9571068 C4.72385763,12.9571068 4.5,12.7332492 4.5,12.4571068 C4.5,12.1809644 4.72385763,11.9571068 5,11.9571068 C5.27614237,11.9571068 5.5,12.1809644 5.5,12.4571068 C5.5,12.7332492 5.27614237,12.9571068 5,12.9571068 L5,12.9571068 Z" id="Shape" fill="#21304A"></path>
      </g>
      <path d="M3,5 L10.5,5 C10.7761424,5 11,4.77614237 11,4.5 C11,4.22385763 10.7761424,4 10.5,4 L3,4 C2.72385763,4 2.5,4.22385763 2.5,4.5 C2.5,4.77614237 2.72385763,5 3,5 L3,5 Z" id="Shape" fill="#21304A" sketch:type="MSShapeGroup"></path>
      <path d="M3,7.5 L10.5,7.5 C10.7761424,7.5 11,7.27614237 11,7 C11,6.72385763 10.7761424,6.5 10.5,6.5 L3,6.5 C2.72385763,6.5 2.5,6.72385763 2.5,7 C2.5,7.27614237 2.72385763,7.5 3,7.5 L3,7.5 Z" id="Shape" fill="#21304A" sketch:type="MSShapeGroup"></path>
      <path d="M3,10 L9,10 C9.27614237,10 9.5,9.77614237 9.5,9.5 C9.5,9.22385763 9.27614237,9 9,9 L3,9 C2.72385763,9 2.5,9.22385763 2.5,9.5 C2.5,9.77614237 2.72385763,10 3,10 L3,10 Z" id="Shape" fill="#21304A" sketch:type="MSShapeGroup"></path>
      <path d="M3,12.5 L8,12.5 C8.27614237,12.5 8.5,12.2761424 8.5,12 C8.5,11.7238576 8.27614237,11.5 8,11.5 L3,11.5 C2.72385763,11.5 2.5,11.7238576 2.5,12 C2.5,12.2761424 2.72385763,12.5 3,12.5 L3,12.5 Z" id="Shape" fill="#21304A" sketch:type="MSShapeGroup"></path>
      <path d="M3,15 L7.5,15 C7.77614237,15 8,14.7761424 8,14.5 C8,14.2238576 7.77614237,14 7.5,14 L3,14 C2.72385763,14 2.5,14.2238576 2.5,14.5 C2.5,14.7761424 2.72385763,15 3,15 L3,15 Z" id="Shape" fill="#21304A" sketch:type="MSShapeGroup"></path>
    </g>

    <!-- media-color -->
    <g transform="translate(163.750000, 9.000000)">
      <rect id="Rectangle-6" fill="#21304A" sketch:type="MSShapeGroup" x="4" y="0" width="15.5" height="15.5" rx="1"></rect>
      <rect id="Rectangle-8" fill="#FFFFFF" sketch:type="MSShapeGroup" x="6" y="2" width="1.5" height="1.5" rx="0.5"></rect>
      <rect id="Rectangle-11" fill="#FFFFFF" sketch:type="MSShapeGroup" x="16.5" y="2" width="1.5" height="1.5" rx="0.5"></rect>
      <rect id="Rectangle-19" fill="#FFFFFF" sketch:type="MSShapeGroup" x="16.5" y="5" width="1.5" height="1.5" rx="0.5"></rect>
      <rect id="Rectangle-20" fill="#FFFFFF" sketch:type="MSShapeGroup" x="16.5" y="8" width="1.5" height="1.5" rx="0.5"></rect>
      <rect id="Rectangle-21" fill="#FFFFFF" sketch:type="MSShapeGroup" x="16.5" y="11" width="1.5" height="1.5" rx="0.5"></rect>
      <rect id="Rectangle-3-Copy" fill="#A7E2FF" sketch:type="MSShapeGroup" x="0" y="4.5" width="15.5" height="15.5" rx="1"></rect>
      <path d="M0.5,14 L5.5,10 L9,15 L11.5,12.5 L15,15.5 L15,19.5 L0.465558146,19.5 L0.5,14 Z" id="Line-Copy" fill="#16C98D" sketch:type="MSShapeGroup"></path>
      <path d="M1,5.49910691 L1,5.49910691 L1,19.0008931 C1,19.0004731 0.999526839,19 0.999106914,19 L14.5008931,19 C14.5004731,19 14.5,19.0004732 14.5,19.0008931 L14.5,5.49910691 C14.5,5.49952689 14.5004732,5.5 14.5008931,5.5 L0.999106914,5.5 C0.999526887,5.5 1,5.49952684 1,5.49910691 L1,5.49910691 Z M0,5.49910691 C0,4.9473154 0.447168827,4.5 0.999106914,4.5 L14.5008931,4.5 C15.0526846,4.5 15.5,4.94716883 15.5,5.49910691 L15.5,19.0008931 C15.5,19.5526846 15.0528312,20 14.5008931,20 L0.999106914,20 C0.447315402,20 0,19.5528312 0,19.0008931 L0,5.49910691 L0,5.49910691 Z" id="Shape" fill="#21304A" sketch:type="MSShapeGroup"></path>
      <path d="M0.5,14 L5.5,10 L12,19" id="Line" stroke="#21304A" stroke-linecap="round" stroke-linejoin="round" sketch:type="MSShapeGroup"></path>
      <path d="M9.5,14.42 L11.5,12.5 L15,15.5" id="Line-13" stroke="#21304A" stroke-linecap="round" stroke-linejoin="round" sketch:type="MSShapeGroup"></path>
      <circle id="Oval-2" fill="#F8E81C" sketch:type="MSShapeGroup" cx="10.25" cy="8.75" r="1.25"></circle>
      <path d="M10.25,10.5 C11.2164983,10.5 12,9.71649831 12,8.75 C12,7.78350169 11.2164983,7 10.25,7 C9.28350169,7 8.5,7.78350169 8.5,8.75 C8.5,9.71649831 9.28350169,10.5 10.25,10.5 L10.25,10.5 Z M10.25,9.5 C9.83578644,9.5 9.5,9.16421356 9.5,8.75 C9.5,8.33578644 9.83578644,8 10.25,8 C10.6642136,8 11,8.33578644 11,8.75 C11,9.16421356 10.6642136,9.5 10.25,9.5 L10.25,9.5 Z" id="Shape" fill="#21304A" sketch:type="MSShapeGroup"></path>
    </g>

    <!-- expander -->
    <path fill="#A9B9C0" d="M199.546818,25.2007325 C199.754018,25.4079328 200.093827,25.4079328 200.301027,25.2007325 L201.668549,23.8249224 C201.875749,23.617722 201.875749,23.2862015 201.668549,23.0790012 L197.267614,18.6780664 L201.668549,14.2771315 C201.875749,14.0699312 201.875749,13.7384107 201.668549,13.5312104 L200.301027,12.1554002 C200.093827,11.9481999 199.754018,11.9481999 199.546818,12.1554002 L193.4054,18.3051058 C193.1982,18.5123061 193.1982,18.8438266 193.4054,19.051027 L199.546818,25.2007325 Z M206.972868,25.2007325 C207.180069,25.4079328 207.519877,25.4079328 207.727078,25.2007325 L209.0946,23.8249224 C209.3018,23.617722 209.3018,23.2862015 209.0946,23.0790012 L204.693665,18.6780664 L209.0946,14.2771315 C209.3018,14.0699312 209.3018,13.7384107 209.0946,13.5312104 L207.727078,12.1554002 C207.519877,11.9481999 207.180069,11.9481999 206.972868,12.1554002 L200.831451,18.3051058 C200.624251,18.5123061 200.624251,18.8438266 200.831451,19.051027 L206.972868,25.2007325 Z" transform="translate(201.250000, 18.678066) scale(-1, 1) translate(-201.250000, -18.678066)"></path>

    <!-- pin -->
    <path fill="#A9B9C0" d="M227.569078,21.860149 L231.441176,17.6128438 C231.441176,17.6128438 232.732464,17.9442753 233.081504,17.5948648 C233.661032,17.014528 232.679071,15.6017069 231.15406,14.073349 C229.897779,12.8148227 228.206411,11.5733911 227.639239,12.1417911 C227.290345,12.4916438 227.620705,13.7856859 227.620705,13.7856859 L223.381916,17.6647174 C223.381916,17.6647174 220.752713,16.4109069 220.011242,17.1532017 C219.704563,17.4609069 219.70368,17.9596017 220.011242,18.2676017 L222.940063,21.2022964 L219.282419,25.7044017 L219.285802,25.7072017 C219.23388,25.781328 219.237557,25.8816859 219.30257,25.9474122 C219.368319,26.0124017 219.46878,26.0162332 219.54203,25.9640648 L219.544825,25.9665701 L224.038371,22.3031385 L226.965721,25.2376859 C227.275195,25.5453911 227.772795,25.5446543 228.07918,25.2376859 C228.821093,24.4943596 227.569078,21.860149 227.569078,21.860149 L227.569078,21.860149 Z"></path>

    <view id="remove" viewBox="10 10 18 18"></view>
    <view id="drag" viewBox="38 10 3 14.6"></view>
    <view id="tree" viewBox="51 8 20 20"></view>
    <view id="media" viewBox="81 9 20 20"></view>
    <view id="back" viewBox="111 9 13 20"></view>
    <view id="entry-color" viewBox="133.75 8.25 23.5 20.5"></view>
    <view id="media-color" viewBox="163.75 9 19.5 20"></view>
    <view id="expander" viewBox="193.25 12 16 13.36"></view>
    <view id="pin" viewBox="219.25 12 14 14"></view>
  </svg>
