<?xml version="1.0" encoding="UTF-8" standalone="no"?>
<svg width="22px" height="25px" viewBox="0 0 22 25" version="1.1" xmlns="http://www.w3.org/2000/svg" xmlns:xlink="http://www.w3.org/1999/xlink" xmlns:sketch="http://www.bohemiancoding.com/sketch/ns">
    <!-- Generator: Sketch 3.3.3 (12081) - http://www.bohemiancoding.com/sketch -->
    <title>logo</title>
    <desc>Created with Sketch.</desc>
    <defs></defs>
    <g id="Entries" stroke="none" stroke-width="1" fill="none" fill-rule="evenodd" sketch:type="MSPage">
        <g id="Entry-editor" sketch:type="MSArtboardGroup" transform="translate(-141.000000, -162.000000)">
            <g id="Navigation-bar" sketch:type="MSLayerGroup" transform="translate(121.000000, 142.000000)">
                <g id="logo" transform="translate(20.000000, 20.000000)" sketch:type="MSShapeGroup">
                    <g id="Group-3" transform="translate(0.000000, 2.000000)" fill="#FAEC28">
                        <path d="M7.40144092,15.4637324 L7.40403458,15.4610915 C6.16253602,14.1952465 5.39308357,12.4487676 5.39308357,10.5244718 C5.39308357,8.59665493 6.16253602,6.85017606 7.40576369,5.58609155 L7.40230548,5.58257042 C8.45533141,4.51038732 8.45533141,2.77271127 7.40230548,1.70228873 C6.34927954,0.630105634 4.6426513,0.630105634 3.58962536,1.70228873 C1.37118156,3.95933099 0,7.0790493 0,10.5244718 C0,13.9698944 1.37118156,17.0878521 3.58962536,19.3448944 C4.6426513,20.4170775 6.34927954,20.4170775 7.40230548,19.3448944 C8.45533141,18.2744718 8.45533141,16.5367958 7.40230548,15.4646127 C7.40195965,15.4642606 7.40161383,15.4640845 7.40144092,15.4637324" id="Fill-1"></path>
                    </g>
                    <path d="M7.40230548,7.58327465 L7.40489914,7.58591549 C8.6481268,6.32183099 10.3634006,5.53838028 12.2533141,5.53838028 C14.1466859,5.53838028 15.8619597,6.32183099 17.1034582,7.58767606 L17.1069164,7.58415493 C18.1599424,8.65633803 19.8665706,8.65633803 20.9178674,7.58415493 C21.9708934,6.51197183 21.9708934,4.77429577 20.9178674,3.70211268 C18.7011527,1.44330986 15.6371758,0.0471830986 12.2533141,0.0471830986 C8.86945245,0.0471830986 5.80720461,1.44330986 3.59048991,3.70211268 C2.53746398,4.77429577 2.53746398,6.51197183 3.59048991,7.58415493 C4.64178674,8.65633803 6.34841499,8.65633803 7.40144092,7.58415493 C7.40178674,7.58380282 7.40195965,7.58362676 7.40230548,7.58327465" id="Fill-4" fill="#56AED2"></path>
                    <path d="M17.1060519,17.4640845 L17.1034582,17.4612676 C15.8602305,18.7253521 14.1449568,19.5088028 12.2550432,19.5088028 C10.3616715,19.5088028 8.64639769,18.7253521 7.40489914,17.459507 L7.40144092,17.4630282 C6.34841499,16.3908451 4.64178674,16.3908451 3.59048991,17.4630282 C2.53746398,18.5352113 2.53746398,20.2728873 3.59048991,21.3450704 C5.80720461,23.6038732 8.87118156,25 12.2550432,25 C15.6389049,25 18.7011527,23.6038732 20.9178674,21.3450704 C21.9708934,20.2728873 21.9708934,18.5352113 20.9178674,17.4630282 C19.8665706,16.3908451 18.1599424,16.3908451 17.1069164,17.4630282 C17.1065706,17.4633803 17.1063977,17.4637324 17.1060519,17.4640845" id="Fill-5" fill="#E0534E"></path>
                    <path d="M7.40230548,7.58257042 C6.34927954,8.65475352 4.6426513,8.65475352 3.58962536,7.58257042 C2.53659942,6.51038732 2.53659942,4.77271127 3.58962536,3.70228873 C4.6426513,2.63010563 6.34927954,2.63010563 7.40230548,3.70228873 C8.45533141,4.77271127 8.45533141,6.51038732 7.40230548,7.58257042" id="Fill-6" fill="#1D78A4"></path>
                    <path d="M7.40230548,21.3448944 C6.34927954,22.4170775 4.6426513,22.4170775 3.58962536,21.3448944 C2.53659942,20.2744718 2.53659942,18.5367958 3.58962536,17.4646127 C4.6426513,16.3924296 6.34927954,16.3924296 7.40230548,17.4646127 C8.45533141,18.5367958 8.45533141,20.2744718 7.40230548,21.3448944" id="Fill-7" fill="#BE433B"></path>
                </g>
            </g>
        </g>
    </g>
</svg>