<svg xmlns="http://www.w3.org/2000/svg" width="90" height="42" viewBox="0 0 90 42" enable-background="new 0 0 90 42"><g fill="#fff"><path d="M33.2 11.5H24v18.9h9c5.9-.1 9.9-4.2 9.9-9.5 0-5.2-3.9-9.2-9.7-9.4zM33 27.2h-5.7V14.8H33c3.7.1 6.2 2.7 6.2 6.2 0 3.6-2.4 6.2-6.2 6.2zM18.9 14.9v-3.4H0v3.4h7.8v12.3H0v3.3h18.9v-3.3h-7.7V14.9zM66.1 14.9v-3.4H47v19h19.1v-3.3H50.5v-4.5h12.2v-3.4H50.5v-4.4zM79.6 10.7c-5.7 0-10.4 4.6-10.4 10.3s4.7 10.3 10.4 10.3S90 26.7 90 21s-4.7-10.3-10.4-10.3zm0 17.1c-3.7 0-6.8-3-6.8-6.7s3-6.7 6.8-6.7c3.7 0 6.8 3 6.8 6.7s-3.1 6.7-6.8 6.7z"></path></g></svg>