<svg xmlns="http://www.w3.org/2000/svg" width="105" height="42" viewBox="46 -1 112 18" enable-background="new 46 -1 112 18">
  <g fill="#fff">
    <path d="M101.4 3h.8c.1 0 .2.1.2.2V3.5l-1.3 2.2h-.1l-1.2-1.6c-.2-.2-.2-.5-.3-.6-.1-.1-.1-.3-.1-.4 0-.1 0-.2.1-.2h.7V-.5h-8.3V3h.2c.4 0 .8.1.9.2.2.2.4.4.5.7V4s0 .1.1.1l1.6 2.6 2.3 3.6v2.2c0 .4-.1.6-.2.7-.1.1-.3.1-.4.1h-1.1v3.4h8.6v-3.5h-1.1c-.1 0-.2 0-.4-.1-.1 0-.1-.3-.1-.6v-2.4l2.8-5.2c.1-.2.2-.5.3-.7.1-.2.1-.4.2-.5.1-.3.3-.5.4-.6.1-.1.4-.2.7-.2h.7V-.5h-6.4V3"></path>
    <path d="M120.7 7.8h-.3v-.2h.1c.9 0 1.7-.3 2.4-1s1.1-1.5 1.1-2.7c0-1.8-.7-3.4-1.8-3.9-1.2-.6-2.4-.4-3.8-.4H109V3h.8c.2 0 .4 0 .6.1.2.1.2.4.2.8v8.3c0 .5-.1.8-.2.9-.1.1-.3.1-.6.1h-.7v3.4h6.6s4.4 0 6.1-.1c1.8-.2 2.8-2.2 2.8-4.5 0-1.1-.3-2.1-1-2.9-.6-.9-1.6-1.3-2.9-1.3zm-4.8-4.6h.6c.6 0 1.1.1 1.5.2.4.2.6.6.6 1.3 0 .4-.1.7-.3 1.1-.2.3-.7.5-1.3.5h-1.1V3.2zm2.5 9.2c-.2.2-.5.4-.7.4h-1.8V9.7h1.3c.5 0 .8.1 1.1.4.3.3.4.7.4 1.3 0 .4-.1.8-.3 1z"></path>
    <path d="M141.4 4.9c-.1-.5-.3-.9-.5-1.4-.2-.5-.5-.9-.8-1.3-.4-.6-.8-1-1.3-1.3-.4-.4-.9-.7-1.4-.9-.7-.4-1.4-.6-2.1-.7-.7-.1-1.3-.2-1.7-.2-.5 0-1 0-1.7.2-.7.1-1.4.4-2.2.7-.4.3-.9.6-1.3.9-.4.4-.8.8-1.2 1.3-.3.4-.6.8-.8 1.3-.2.5-.4.9-.6 1.4-.2.6-.3 1.1-.3 1.6-.1.6-.1 1.1-.1 1.5 0 .4 0 1 .1 1.7s.3 1.4.5 2.2c.1.3.3.7.4 1 .2.4.4.7.6 1 .7 1 1.6 1.7 2.7 2.2 1.1.5 2.2.7 3.4.8h1c1.2 0 2.3-.3 3.4-.8s2-1.2 2.7-2.2c.2-.3.4-.7.6-1 .2-.3.3-.7.4-1 .3-.8.5-1.5.5-2.2.1-.7.1-1.3.1-1.7 0-.5 0-1-.1-1.5 0-.5-.2-1-.3-1.6zm-5.8 4c0 1.2-.1 2.2-.4 3-.2.8-.8 1.2-1.6 1.2s-1.4-.4-1.6-1.2c-.2-.8-.3-1.8-.3-3V7.3c0-1.7.1-2.8.4-3.3.3-.5.6-.8 1-.9h1c.4.1.7.4 1 .9.3.5.5 1.6.5 3.3v1.6z"></path>
    <path d="M151.4-.5V3h.8c.1 0 .2.1.2.2V3.5l-1.3 2.1h-.1l-1.2-1.5c-.2-.2-.2-.5-.3-.6-.1-.1-.1-.3-.1-.4 0-.1 0-.2.1-.2h.7V-.5h-8.4V3h.2c.4 0 .7.1.9.2.2.2.4.4.5.7V4s0 .1.1.1l4 6.1v2.2c0 .4-.1.6-.2.7-.1.1-.3.1-.4.1h-1.1v3.4h8.5v-3.4h-1.1c-.1 0-.3 0-.4-.1-.1 0-.2-.3-.2-.6V10l2.8-5c.1-.2.2-.5.3-.7.1-.2.1-.4.2-.5.1-.3.3-.5.4-.6.2-.1.4-.2.7-.2h.7V-.4h-6.3"></path>
    <path d="M93 12.9c-.2-.2-.3-.5-.5-.9v-.2L89-.5h-6.6L81 4.1l-2.3 7.2c0 .1 0 .1-.1.2 0 .1 0 .2-.1.2-.1.3-.2.5-.4.7 0 .1-.1.1-.1.2-.2.3-.6.5-1 .5h-.4v3.4h6.3v-3.3h-.7c-.1 0-.2 0-.2-.1 0 0-.1-.1-.1-.2v-.3l.1-.3h5.2l.1.6c0 .1 0 .2-.2.2H86v3.4h8v-3.3h-.4c-.2 0-.4-.1-.6-.3zm-8.2-4.5h-1.5l1.4-4.5h.2l1.3 4.5h-1.4z"></path>
    <path d="M59 .7C57.5 0 55.9-.4 54-.4h-7.9V3h.7c.4 0 .6 0 .7.2.1.1.2.4.2.8v8.3c0 .4-.1.7-.2.8-.1.1-.3.2-.7.2h-.7v3.4h8.7v-3.5h-1c-.4 0-.6-.1-.7-.2-.1-.1-.2-.4-.2-.7v-1.7h1.8c1.9 0 3.4-.3 4.3-1 .9-.7 1.5-1.4 1.8-2.3.1-.4.2-.7.3-1.1 0-.3.1-.7.1-.9.1-2.4-.7-3.9-2.2-4.6zm-3.9 5.5c-.2.3-.5.5-.8.6-.2 0-.4.1-.5.1H53V3.2h.5c.7 0 1.2.2 1.5.5.3.3.4.7.4 1.2 0 .6-.1 1-.3 1.3z"></path>
    <path d="M73.2 10.8c0 .2 0 .3-.1.4-.1.6-.3 1-.5 1.2-.2.1-.6.2-1.2.2h-2.5V3.9c0-.4 0-.7.2-.8.1-.1.3-.1.6-.1h.9V-.4h-8.5V3h.7c.4 0 .7.1.8.3.1.2.1.5.1.7v8.3c0 .2 0 .5-.1.7-.1.2-.3.3-.8.3h-.7v3.4h13.7l.1-6.3h-2.5c-.2.1-.2.2-.2.4"></path>
  </g>
</svg>
